# xmcd
#
# Track frame offsets:
#	183
#	15625
#	30335
#	41483
#	53050
#	68918
#	83285
#	95455
#	112423
#	128450
#	142888
#	154310
#	166858
#	180343
#	193643
#	214235
#
# Disc length: 2993 seconds
#
# Revision: 7
# Processed by: cddbd v1.5.2PL0 Copyright (c) Steve Scherf et al.
# Submitted via: EasyCDDAExtractor 15.3.0.1
#
DISCID=c70baf10
DTITLE=Cher - Half Breed (Germany Edition)
DYEAR=1992
DGENRE=Pop
TTITLE0=Dark Lady
TTITLE1=Song For You
TTITLE2=I Hate To Sleep Alone
TTITLE3=Train Of Thought
TTITLE4=He Ain't Heavy, He's My Brother
TTITLE5=The First Time
TTITLE6=Half Breed
TTITLE7=Am I Blue
TTITLE8=My Love
TTITLE9=The Long And Winding Road
TTITLE10=The Way Of Love
TTITLE11=Don't Hide Your Love
TTITLE12=Carousel Man
TTITLE13=Fire and Rain
TTITLE14=The Man I Love
TTITLE15=Rescue Me
EXTD=YEAR: 1992 ID3G:  13
EXTT0=
EXTT1=
EXTT2=
EXTT3=
EXTT4=
EXTT5=
EXTT6=
EXTT7=
EXTT8=
EXTT9=
EXTT10=
EXTT11=
EXTT12=
EXTT13=
EXTT14=
EXTT15=
PLAYORDER=
